<svg width="80" height="16" viewBox="0 0 80 16" fill="none" xmlns="http://www.w3.org/2000/svg">
<rect width="16" height="16" fill="white" style="mix-blend-mode:multiply"/>
<path d="M14.5001 13.7929L10.7241 10.0169C11.6314 8.92758 12.0839 7.53038 11.9873 6.11596C11.8908 4.70153 11.2526 3.37879 10.2057 2.42288C9.15867 1.46698 7.78347 0.951515 6.36612 0.983723C4.94877 1.01593 3.5984 1.59333 2.59593 2.59581C1.59345 3.59828 1.01605 4.94865 0.983845 6.366C0.951637 7.78335 1.4671 9.15855 2.423 10.2055C3.37891 11.2525 4.70165 11.8907 6.11608 11.9872C7.5305 12.0838 8.9277 11.6313 10.017 10.7239L13.7931 14.5L14.5001 13.7929ZM2.00012 6.5C2.00012 5.60998 2.26404 4.73995 2.75851 3.99993C3.25297 3.25991 3.95578 2.68313 4.77804 2.34254C5.60031 2.00194 6.50511 1.91283 7.37802 2.08646C8.25094 2.2601 9.05276 2.68868 9.6821 3.31802C10.3114 3.94735 10.74 4.74918 10.9137 5.62209C11.0873 6.495 10.9982 7.3998 10.6576 8.22207C10.317 9.04434 9.7402 9.74714 9.00018 10.2416C8.26016 10.7361 7.39013 11 6.50012 11C5.30705 10.9987 4.16323 10.5241 3.3196 9.68052C2.47597 8.83689 2.00144 7.69306 2.00012 6.5Z" fill="#2A254B"/>
<rect width="16" height="16" transform="translate(32)" fill="white" style="mix-blend-mode:multiply"/>
<path d="M37 15C37.5523 15 38 14.5523 38 14C38 13.4477 37.5523 13 37 13C36.4477 13 36 13.4477 36 14C36 14.5523 36.4477 15 37 15Z" fill="#2A254B"/>
<path d="M44 15C44.5523 15 45 14.5523 45 14C45 13.4477 44.5523 13 44 13C43.4477 13 43 13.4477 43 14C43 14.5523 43.4477 15 44 15Z" fill="#2A254B"/>
<path d="M46 3.50001H34.91L34.5 1.40001C34.4766 1.28537 34.4138 1.18256 34.3224 1.10947C34.2311 1.03639 34.117 0.997651 34 1.00001H32V2.00001H33.59L35.5 11.6C35.5234 11.7146 35.5862 11.8175 35.6776 11.8905C35.7689 11.9636 35.883 12.0024 36 12H45V11H36.41L36 9.00001H45C45.1156 9.00284 45.2286 8.96552 45.3197 8.89441C45.4109 8.8233 45.4746 8.7228 45.5 8.61001L46.5 4.11001C46.5168 4.03582 46.5164 3.95879 46.4989 3.88478C46.4814 3.81076 46.4472 3.74172 46.399 3.6829C46.3508 3.62407 46.2898 3.57703 46.2206 3.54534C46.1515 3.51364 46.076 3.49814 46 3.50001ZM44.6 8.00001H35.81L35.11 4.50001H45.375L44.6 8.00001Z" fill="#2A254B"/>
<rect width="16" height="16" transform="translate(64)" fill="white" style="mix-blend-mode:multiply"/>
<path d="M72 4C71.5056 4 71.0222 4.14662 70.6111 4.42133C70.2 4.69603 69.8795 5.08648 69.6903 5.54329C69.5011 6.00011 69.4516 6.50277 69.548 6.98773C69.6445 7.47268 69.8826 7.91814 70.2322 8.26777C70.5819 8.6174 71.0273 8.8555 71.5123 8.95196C71.9972 9.04843 72.4999 8.99892 72.9567 8.8097C73.4135 8.62048 73.804 8.30005 74.0787 7.88893C74.3534 7.4778 74.5 6.99445 74.5 6.5C74.5 5.83696 74.2366 5.20107 73.7678 4.73223C73.2989 4.26339 72.663 4 72 4ZM72 8C71.7033 8 71.4133 7.91203 71.1666 7.7472C70.92 7.58238 70.7277 7.34811 70.6142 7.07403C70.5007 6.79994 70.4709 6.49834 70.5288 6.20736C70.5867 5.91639 70.7296 5.64912 70.9393 5.43934C71.1491 5.22956 71.4164 5.0867 71.7074 5.02882C71.9983 4.97094 72.2999 5.00065 72.574 5.11418C72.8481 5.22771 73.0824 5.41997 73.2472 5.66664C73.412 5.91332 73.5 6.20333 73.5 6.5C73.4996 6.89769 73.3414 7.27896 73.0602 7.56016C72.779 7.84137 72.3977 7.99955 72 8Z" fill="#2A254B"/>
<path d="M72 1C70.6155 1 69.2622 1.41054 68.111 2.17971C66.9599 2.94888 66.0627 4.04213 65.5328 5.32122C65.003 6.6003 64.8644 8.00776 65.1345 9.36563C65.4046 10.7235 66.0713 11.9708 67.0503 12.9497C68.0292 13.9287 69.2765 14.5954 70.6344 14.8655C71.9922 15.1356 73.3997 14.997 74.6788 14.4672C75.9579 13.9373 77.0511 13.0401 77.8203 11.889C78.5895 10.7378 79 9.38447 79 8C78.9979 6.14413 78.2597 4.36486 76.9474 3.05256C75.6351 1.74026 73.8559 1.00209 72 1ZM69 13.1882V12.5C69.0004 12.1023 69.1586 11.721 69.4398 11.4398C69.721 11.1586 70.1023 11.0004 70.5 11H73.5C73.8977 11.0004 74.279 11.1586 74.5602 11.4398C74.8414 11.721 74.9996 12.1023 75 12.5V13.1882C74.0896 13.7199 73.0543 14 72 14C70.9457 14 69.9104 13.7199 69 13.1882ZM75.9963 12.4629C75.9863 11.807 75.7191 11.1813 75.2521 10.7206C74.7852 10.2599 74.156 10.0011 73.5 10H70.5C69.8441 10.0011 69.2148 10.2599 68.7479 10.7206C68.2809 11.1813 68.0137 11.807 68.0038 12.4629C67.097 11.6533 66.4576 10.5873 66.1702 9.40623C65.8827 8.22513 65.9608 6.98457 66.3941 5.84883C66.8273 4.71309 67.5954 3.73573 68.5964 3.04618C69.5975 2.35663 70.7844 1.98741 72 1.98741C73.2156 1.98741 74.4025 2.35663 75.4036 3.04618C76.4046 3.73573 77.1727 4.71309 77.6059 5.84883C78.0392 6.98457 78.1173 8.22513 77.8298 9.40623C77.5424 10.5873 76.903 11.6533 75.9963 12.4629Z" fill="#2A254B"/>
</svg>
